<?xml version="1.0" encoding="UTF-8"?>
<svg id="Layer_2" data-name="Layer 2" xmlns="http://www.w3.org/2000/svg" xmlns:xlink="http://www.w3.org/1999/xlink" viewBox="0 0 309.96 81.29">
  <defs>
    <style>
      .cls-1 {
        fill: url(#linear-gradient);
      }

      .cls-1, .cls-2 {
        stroke-width: 0px;
      }
    </style>
    <linearGradient id="linear-gradient" x1="293.78" y1="71.64" x2="309.96" y2="71.64" gradientUnits="userSpaceOnUse">
      <stop offset="0" stop-color="#ff5425"/>
      <stop offset="1" stop-color="#ed1e79"/>
    </linearGradient>
  </defs>
  <g id="Layer_1-2" data-name="Layer 1">
    <g>
      <path class="cls-2" d="m54.57,63.59l-5.15-8.83-10.75-18.42L62.15,0h-18.38l-20.09,31.02h-7.21V0H0v54.76h16.48v-10.77h8.18l6.19,10.77,5.06,8.83,9.25,16.11h18.82l-9.41-16.11ZM0,79.7h16.48v-16.11H0v16.11Z"/>
      <path class="cls-2" d="m95.09,23.6c-17.64,0-30.07,12.53-30.07,28.69,0,.83.02,1.66.09,2.47.25,3.14.95,6.1,2.06,8.83,4.28,10.59,14.61,17.71,27.92,17.71s23.67-7.12,27.92-17.71c1.11-2.73,1.8-5.69,2.06-8.83.07-.81.09-1.64.09-2.47,0-16.16-12.41-28.69-30.07-28.69Zm11.05,39.99c-2.77,2.64-6.61,4.21-11.05,4.21s-8.25-1.57-11.03-4.21c-2.4-2.27-4-5.32-4.51-8.83-.12-.79-.18-1.62-.18-2.47,0-8.51,6.59-15.19,15.72-15.19s15.74,6.68,15.74,15.19c0,.86-.07,1.69-.18,2.47-.51,3.51-2.1,6.56-4.51,8.83Z"/>
      <path class="cls-2" d="m174.72,6.75v26.81c-4.16-6.68-10.75-9.96-18.28-9.96-14.15,0-25.29,12.32-25.29,28.69,0,.83.02,1.66.09,2.47.21,3.14.81,6.1,1.78,8.83,3.72,10.66,12.71,17.71,23.42,17.71,7.54,0,14.12-1.79,18.28-8.59v6.99h14.77V0h-8.02c-3.73,0-6.75,3.02-6.75,6.75Zm0,45.7c0,8.46-3.6,10.65-5.31,12.1-2.82,2.38-5.25,3.04-9.36,3.04-3.72,0-7.12-1.46-9.64-4-2.22-2.2-3.74-5.22-4.21-8.83-.14-.81-.18-1.62-.18-2.47,0-8.83,6.29-15.09,14.03-15.09,6.59,0,14.68,7.33,14.68,15.26h0Z"/>
      <path class="cls-2" d="m237.39,63.59c-2.77,3.14-7.19,4.95-11.74,4.95-4.85,0-8.92-1.76-11.67-4.95-1.99-2.27-3.33-5.25-3.79-8.83-.02-.12-.02-.23-.05-.35h43.46c0-15.63-9.78-30.81-28.15-30.81-16.16,0-28.59,12.64-28.59,28.48,0,.9.05,1.8.12,2.68.23,3.14.92,6.1,2.01,8.83,4.18,10.66,14.19,17.71,26.67,17.71s22.49-6.73,26.35-17.71c.35-.97.62-1.96.86-3h-13.5c-.49,1.11-1.16,2.1-1.96,3Zm-10.95-29.15c7.87-.02,13.44,4.17,14.59,9.7h-30.06c2.03-6.26,8.47-9.68,15.47-9.7Z"/>
      <path class="cls-2" d="m276.03,30.12v-6.52h-15.21v56.1h15.21v-33.68c3.19-2.66,10.19-5.64,17.75-5.64v-16.78c-7.65,0-11.29,2.6-17.75,6.52Z"/>
      <rect class="cls-1" x="293.78" y="63.55" width="16.18" height="16.18"/>
    </g>
  </g>
</svg>